{
    "asset" : {
        "generator" : "Khronos glTF Blender I/O v1.6.16",
        "version" : "2.0"
    },
    "scene" : 0,
    "scenes" : [
        {
            "name" : "Scene",
            "nodes" : [
                0,
                1,
                2
            ]
        }
    ],
    "nodes" : [
        {
            "name" : "Light",
            "rotation" : [
                0.16907575726509094,
                0.7558803558349609,
                -0.27217137813568115,
                0.570947527885437
            ],
            "translation" : [
                4.076245307922363,
                5.903861999511719,
                -1.0054539442062378
            ]
        },
        {
            "name" : "Camera",
            "rotation" : [
                0.483536034822464,
                0.33687159419059753,
                -0.20870360732078552,
                0.7804827094078064
            ],
            "translation" : [
                7.358891487121582,
                4.958309173583984,
                6.925790786743164
            ]
        },
        {
            "mesh" : 0,
            "name" : "Cube.022"
        }
    ],
    "materials" : [
        {
            "doubleSided" : true,
            "name" : "LightWood",
            "pbrMetallicRoughness" : {
                "baseColorFactor" : [
                    0.33245161175727844,
                    0.14702729880809784,
                    0.06847820430994034,
                    1
                ],
                "metallicFactor" : 0
            }
        },
        {
            "doubleSided" : true,
            "name" : "Celing",
            "pbrMetallicRoughness" : {
                "baseColorFactor" : [
                    0.4452013075351715,
                    0.05126941204071045,
                    0.07036013156175613,
                    1
                ],
                "metallicFactor" : 0
            }
        }
    ],
    "meshes" : [
        {
            "name" : "Cube.022",
            "primitives" : [
                {
                    "attributes" : {
                        "POSITION" : 0,
                        "NORMAL" : 1
                    },
                    "indices" : 2,
                    "material" : 0
                },
                {
                    "attributes" : {
                        "POSITION" : 3,
                        "NORMAL" : 4
                    },
                    "indices" : 5,
                    "material" : 1
                }
            ]
        }
    ],
    "accessors" : [
        {
            "bufferView" : 0,
            "componentType" : 5126,
            "count" : 588,
            "max" : [
                0.746771514415741,
                2.213585376739502,
                0.7467718124389648
            ],
            "min" : [
                -0.7467703819274902,
                -1.623286485671997,
                -0.7467707395553589
            ],
            "type" : "VEC3"
        },
        {
            "bufferView" : 1,
            "componentType" : 5126,
            "count" : 588,
            "type" : "VEC3"
        },
        {
            "bufferView" : 2,
            "componentType" : 5123,
            "count" : 1032,
            "type" : "SCALAR"
        },
        {
            "bufferView" : 3,
            "componentType" : 5126,
            "count" : 110,
            "max" : [
                0.6873732209205627,
                2.213585376739502,
                0.6873735785484314
            ],
            "min" : [
                -0.6873709559440613,
                1.316470742225647,
                -0.6873717308044434
            ],
            "type" : "VEC3"
        },
        {
            "bufferView" : 4,
            "componentType" : 5126,
            "count" : 110,
            "type" : "VEC3"
        },
        {
            "bufferView" : 5,
            "componentType" : 5123,
            "count" : 210,
            "type" : "SCALAR"
        }
    ],
    "bufferViews" : [
        {
            "buffer" : 0,
            "byteLength" : 7056,
            "byteOffset" : 0
        },
        {
            "buffer" : 0,
            "byteLength" : 7056,
            "byteOffset" : 7056
        },
        {
            "buffer" : 0,
            "byteLength" : 2064,
            "byteOffset" : 14112
        },
        {
            "buffer" : 0,
            "byteLength" : 1320,
            "byteOffset" : 16176
        },
        {
            "buffer" : 0,
            "byteLength" : 1320,
            "byteOffset" : 17496
        },
        {
            "buffer" : 0,
            "byteLength" : 420,
            "byteOffset" : 18816
        }
    ],
    "buffers" : [
        {
            "byteLength" : 19236,
            "uri" : "Tower.bin"
        }
    ]
}
